<svg width="223" height="276" viewBox="0 0 223 276" fill="none" xmlns="http://www.w3.org/2000/svg">
<path d="M112.353 244.452L111.721 270.962L157.708 271.413C157.708 271.413 157.979 266.003 149.232 261.945C140.486 257.888 138.682 241.837 138.682 241.837L112.353 244.452Z" fill="#A62CDF"/>
<path d="M158.339 272.044L111 271.593L111.631 243.821L139.223 241.116L139.314 241.747C139.314 241.927 141.207 257.437 149.503 261.314C158.52 265.462 158.43 271.142 158.43 271.413L158.339 272.044ZM112.353 270.241L156.897 270.692C156.626 269.249 155.364 265.552 148.872 262.576C140.846 258.879 138.502 245.714 138.051 242.649L112.984 245.173L112.353 270.241Z" fill="#A62CDF"/>
<path d="M29.5763 233.271L19.7478 257.887L62.6689 274.299C62.6689 274.299 64.7428 269.339 57.98 262.486C51.2172 255.633 55.0945 239.944 55.0945 239.944L29.5763 233.271Z" fill="#A62CDF"/>
<path d="M63.1195 275.2L18.936 258.248L29.2155 232.459L55.996 239.493L55.8157 240.124C55.8157 240.304 52.1188 255.543 58.5209 262.035C65.5541 269.069 63.39 274.389 63.2999 274.569L63.1195 275.2ZM20.6493 257.437L62.2178 273.397C62.4883 271.954 62.5785 267.987 57.5289 262.937C51.3072 256.625 53.6516 243.55 54.2828 240.485L29.9368 234.083L20.6493 257.437Z" fill="#A62CDF"/>
<path d="M65.1933 136.428H64.6523C64.2916 136.428 56.6271 136.067 47.6101 128.493L46.7986 127.862L70.6035 116.32L65.1933 136.428ZM49.2331 128.132C56.2664 133.723 62.398 134.805 64.1113 134.985L68.4395 118.754L49.2331 128.132Z" fill="#A62CDF"/>
<path d="M62.7589 125.337C55.2748 137.78 52.1188 172.496 43.8231 190.259C35.5275 208.023 25.7891 236.697 25.7891 236.697L59.8735 251.124C59.8735 251.124 83.0473 199.277 85.6622 172.225C88.2772 145.174 87.646 121.73 87.646 121.73L62.7589 125.337Z" fill="#7B2CDF"/>
<path d="M77.1863 138.863C77.9076 153.29 96.3926 180.521 99.3682 199.998C102.344 219.475 110.098 254.551 110.098 254.551L146.437 247.698C146.437 247.698 141.658 193.235 125.878 159.602C114.336 134.985 97.7452 118.665 97.7452 118.665L77.1863 138.863Z" fill="#7B2CDF"/>
<path d="M84.7603 162.307C84.4897 162.307 84.3094 162.216 84.1291 161.946L81.8748 157.888L75.112 155.454C74.7513 155.363 74.571 154.913 74.6612 154.552C74.7513 154.191 75.2022 154.011 75.5629 154.101L82.7765 156.626L85.2111 161.134C85.3914 161.495 85.3013 161.856 84.9406 162.036C85.0308 162.307 84.9406 162.307 84.7603 162.307Z" fill="white"/>
<path d="M55.0039 253.649C53.6513 254.371 52.2086 255.182 50.856 255.904C50.315 256.174 50.7659 256.986 51.3069 256.715C52.6595 255.994 54.1022 255.182 55.4547 254.461C55.9056 254.1 55.4547 253.289 55.0039 253.649Z" fill="#260C70"/>
<path d="M55.6354 256.445C54.5533 257.347 53.3811 258.158 52.2991 259.06C51.8482 259.42 52.2991 260.232 52.7499 259.871L56.0862 257.256C56.5371 256.896 56.0862 256.084 55.6354 256.445Z" fill="#260C70"/>
<path d="M143.371 255.362C142.83 256.535 142.289 257.617 141.658 258.789C141.387 259.33 142.199 259.781 142.47 259.24L144.183 255.813C144.453 255.272 143.642 254.821 143.371 255.362Z" fill="#260C70"/>
<path d="M145.986 258.428C145.445 259.601 144.904 260.683 144.273 261.855C144.002 262.396 144.814 262.847 145.084 262.306L146.797 258.879C146.978 258.338 146.256 257.887 145.986 258.428Z" fill="#260C70"/>
<path d="M139.403 246.616C139.043 246.616 138.772 246.345 138.772 245.985C137.33 193.686 106.221 136.788 105.95 136.247C105.77 135.887 105.86 135.526 106.221 135.346C106.581 135.165 106.942 135.255 107.122 135.616C107.393 136.157 138.592 193.325 140.125 245.985C140.035 246.255 139.764 246.616 139.403 246.616Z" fill="white"/>
<path d="M112.172 147.879C112.082 147.879 111.992 147.879 111.902 147.879C111.541 147.789 111.361 147.338 111.541 146.978C113.254 142.379 111.18 136.067 111.18 135.977C111.09 135.616 111.27 135.256 111.631 135.075C111.992 134.985 112.352 135.165 112.533 135.526C112.623 135.797 114.877 142.379 112.893 147.429C112.713 147.699 112.443 147.879 112.172 147.879Z" fill="white"/>
<path d="M107.483 46.3475C110.279 53.0201 110.459 60.1435 101.713 62.9388C95.7613 64.8323 88.6379 62.0371 85.8426 55.3645C83.0473 48.6919 85.6622 41.2979 91.6135 38.7731C97.5647 36.2483 104.688 39.6748 107.483 46.3475Z" fill="white"/>
<path d="M97.9252 64.2012C92.6051 64.2012 87.3753 60.9551 85.2112 55.6351C83.7685 52.2987 83.6783 48.6018 84.7603 45.2655C85.9326 41.9292 88.277 39.4044 91.3428 38.142C97.6547 35.527 105.139 39.0437 108.114 46.077C110.098 50.856 110.369 54.9137 109.016 57.9795C107.844 60.5944 105.409 62.3978 101.983 63.57C100.63 64.0209 99.2777 64.2012 97.9252 64.2012ZM95.7611 38.683C94.4987 38.683 93.1462 38.9535 91.8838 39.4945C89.1787 40.6667 87.1048 42.8308 86.1129 45.8065C85.121 48.7821 85.2112 52.1184 86.4736 55.1842C89.2689 61.7666 96.3021 64.0209 101.532 62.3076C104.688 61.3158 106.762 59.6927 107.754 57.4385C109.016 54.7333 108.746 51.0364 106.852 46.618C104.868 41.7488 100.27 38.683 95.7611 38.683Z" fill="#260C70"/>
<path d="M102.524 46.6179C103.022 46.6179 103.426 46.2142 103.426 45.7162C103.426 45.2182 103.022 44.8145 102.524 44.8145C102.026 44.8145 101.622 45.2182 101.622 45.7162C101.622 46.2142 102.026 46.6179 102.524 46.6179Z" fill="#260C70"/>
<path d="M103.245 37.3305C103.245 31.3793 93.4166 38.0518 91.7033 38.8634C86.3833 39.8552 81.6944 46.8886 83.3175 53.1103C84.67 58.4304 90.8016 64.7423 94.0477 63.2094C99.3678 60.0534 100.179 54.8235 97.7448 49.8642C98.6465 48.7821 97.5644 47.1591 98.0153 45.8967C98.5563 43.8228 103.245 39.4044 103.245 37.3305Z" fill="#3E0C70"/>
<path d="M95.8508 49.3231C85.932 48.4214 87.1043 56.3564 90.8012 58.1598C93.867 59.6025 98.5559 59.0615 100.449 54.553C102.343 50.1346 95.8508 49.3231 95.8508 49.3231Z" fill="white"/>
<path d="M96.7527 52.7495C94.8591 51.7576 92.5147 52.2084 91.1621 53.9217C90.8015 54.3725 91.4327 55.0037 91.7933 54.5529C92.8754 53.2003 94.769 52.7495 96.3019 53.561C96.7527 53.8315 97.2036 53.02 96.7527 52.7495Z" fill="#260C70"/>
<path d="M108.294 48.6017C107.302 46.8885 106.04 45.2654 104.507 43.9129C104.056 43.5522 103.425 44.1834 103.876 44.5441C105.319 45.8966 106.491 47.3394 107.483 49.0526C107.753 49.5034 108.565 49.0526 108.294 48.6017Z" fill="#260C70"/>
<path d="M37.2404 90.7111C33.6336 102.794 36.4289 121.73 46.0771 128.583C46.0771 128.583 58.2501 124.345 61.1355 124.976C64.2013 119.746 67.718 114.877 70.9641 109.737C66.8163 108.114 63.1193 106.852 62.3078 102.163C59.9633 89.5389 74.9316 92.244 84.8503 95.2196C87.2849 85.4812 88.1867 70.2424 88.1867 70.2424C64.1112 64.1109 43.0113 71.6851 37.2404 90.7111Z" fill="#A62CDF"/>
<path d="M45.9869 129.394L45.7164 129.214C35.978 122.271 32.9122 103.065 36.6092 90.5309C42.2899 71.505 63.0291 63.1191 88.2768 69.6114L88.8178 69.7917V70.3327C88.8178 70.5131 87.9161 85.7519 85.4815 95.4001L85.3012 96.1214L84.5798 95.9411C74.3906 92.8753 67.4474 92.695 64.4718 95.3099C62.9389 96.7527 62.3979 99.0069 62.9389 102.073C63.7505 106.311 66.9966 107.573 71.0543 109.106L71.8658 109.376L71.5051 110.098C70.4231 111.811 69.2508 113.524 68.1688 115.238C66.0047 118.484 63.7505 121.91 61.7667 125.337L61.4962 125.788L61.0454 125.697C59.0616 125.247 51.2168 127.591 46.4377 129.304L45.9869 129.394ZM37.9617 90.9818C34.3549 102.884 37.1502 121.099 46.2574 127.952C48.4215 127.23 57.5287 124.164 60.7749 124.345C62.7586 121.009 64.9227 117.762 66.9966 114.606C67.9885 113.164 68.9803 111.721 69.882 110.188C65.9146 108.655 62.3979 107.122 61.5864 102.343C60.9552 98.7364 61.5864 96.0313 63.48 94.318C66.8163 91.3424 73.7594 91.3424 84.2192 94.4082C86.2029 85.9322 87.1046 73.5789 87.3751 70.7836C63.2095 64.7422 43.3719 72.8575 37.9617 90.9818Z" fill="#A62CDF"/>
<path d="M72.6776 125.066H48.5119C46.0773 125.066 44.0034 123.083 44.0034 120.558V86.2029C44.0034 83.7683 45.9872 81.6943 48.5119 81.6943H72.6776C75.1122 81.6943 77.1861 83.6781 77.1861 86.2029V120.558C77.1861 123.083 75.2024 125.066 72.6776 125.066Z" fill="white"/>
<path d="M72.6774 125.697H48.5118C45.7165 125.697 43.3721 123.353 43.3721 120.558V86.2027C43.3721 83.4074 45.7165 81.063 48.5118 81.063H72.6774C75.4727 81.063 77.8172 83.4074 77.8172 86.2027V120.558C77.8172 123.443 75.5629 125.697 72.6774 125.697ZM48.602 82.4155C46.5281 82.4155 44.8148 84.1287 44.8148 86.2027V120.558C44.8148 122.632 46.5281 124.345 48.602 124.345H72.7676C74.8416 124.345 76.5548 122.632 76.5548 120.558V86.2027C76.5548 84.1287 74.8416 82.4155 72.7676 82.4155H48.602Z" fill="#3E0C70"/>
<path d="M50.5855 81.6943H48.6018C46.1672 81.6943 44.0933 83.6781 44.0933 86.2029V120.558C44.0933 122.992 46.077 125.066 48.6018 125.066H50.5855V81.6943Z" fill="#3E0C70"/>
<path d="M47.3392 117.762H43.8225C42.1995 117.762 40.8469 116.41 40.8469 114.787V114.246C40.8469 112.623 42.1995 111.27 43.8225 111.27H47.3392V117.762Z" fill="#3E0C70"/>
<path d="M5.2299 266.814C4.86922 266.814 4.50854 266.544 4.50854 266.093V202.162C4.50854 195.489 9.91879 190.079 16.5914 190.079H21.2802C27.2315 190.079 32.0105 185.3 32.0105 179.349V125.698C32.0105 119.025 37.4208 113.615 44.0934 113.615C44.454 113.615 44.8147 113.885 44.8147 114.336C44.8147 114.787 44.5442 115.057 44.0934 115.057C38.1421 115.057 33.3631 119.837 33.3631 125.788V179.439C33.3631 186.112 27.9528 191.522 21.2802 191.522H16.5914C10.6402 191.522 5.8611 196.301 5.8611 202.252V266.183C5.8611 266.544 5.59058 266.814 5.2299 266.814Z" fill="#3E0C70"/>
<path d="M10.4597 267.716H0V262.486C0 259.6 2.34442 257.256 5.22987 257.256C8.11532 257.256 10.4597 259.6 10.4597 262.486V267.716Z" fill="#260C70"/>
<path d="M95.3095 70.4233C81.2429 67.3575 75.5622 74.0302 70.5127 94.589C65.4631 115.148 56.446 127.05 56.446 127.05C56.446 127.05 97.3834 138.592 114.786 136.067C114.786 136.158 125.246 76.9156 95.3095 70.4233Z" fill="#A62CDF"/>
<path d="M108.926 137.239C89.8996 137.239 57.7088 128.222 56.2661 127.771L55.2742 127.501L55.9054 126.689C55.9955 126.599 64.9224 114.607 69.8818 94.4085C75.2018 72.6774 81.4236 66.636 95.4902 69.7017C108.024 72.4069 115.418 84.8504 116.951 105.59C118.033 121.099 115.508 136.067 115.418 136.157L115.328 136.608L114.877 136.698C113.073 137.149 111.09 137.239 108.926 137.239ZM57.5284 126.78C63.66 128.403 98.3756 137.6 114.155 135.616C115.057 129.936 122.631 77.0958 95.2196 71.1445C81.9646 68.2591 76.374 73.7594 71.2343 94.8593C66.9062 112.352 59.6023 123.714 57.5284 126.78Z" fill="#A62CDF"/>
<path d="M84.1287 72.8578L85.5714 65.7344L104.778 67.8984L102.433 76.5548L84.1287 72.8578Z" fill="#A62CDF"/>
<path d="M102.974 77.3664L83.4075 73.3087L85.1207 64.9229L105.68 67.2673L102.974 77.3664ZM84.9404 72.3168L101.983 75.8334L103.876 68.5297L86.1126 66.5459L84.9404 72.3168Z" fill="#A62CDF"/>
<path d="M169.791 58.7005C169.52 54.1018 166.094 53.2903 166.094 53.2903C165.823 50.5852 161.946 49.7737 161.946 49.7737C163.028 44.634 164.651 42.9208 163.839 41.3879C162.667 39.0434 160.503 40.6665 157.978 45.8062C157.437 45.3553 156.626 45.3553 155.183 46.4374C151.937 48.872 150.584 55.4544 151.576 63.1189C151.576 63.1189 151.576 63.1189 151.576 63.209C151.306 63.8402 151.035 64.3813 150.765 64.8322L162.938 80.7923C162.938 80.7923 165.733 79.0791 166.454 73.3983C166.905 70.2424 167.446 65.6437 167.897 63.2993C170.602 63.6599 169.971 60.9548 169.791 58.7005Z" fill="white"/>
<path d="M162.848 81.6942L150.043 64.8324L150.224 64.4717C150.494 64.0208 150.765 63.57 150.945 63.029C149.863 55.1841 151.396 48.4214 154.822 45.8966C155.995 45.085 156.896 44.7243 157.708 44.9047C159.511 41.388 161.044 39.6748 162.487 39.6748C163.028 39.6748 163.839 39.9453 164.381 41.1175C164.922 42.2897 164.561 43.3718 163.93 45.085C163.569 46.1671 163.028 47.5196 162.667 49.4132C163.84 49.7739 166.184 50.7658 166.635 52.9299C167.627 53.3807 170.151 54.7333 170.332 58.7909C170.332 59.1516 170.422 59.4221 170.422 59.7828C170.512 61.3157 170.692 62.8486 169.791 63.6601C169.43 64.0208 168.979 64.111 168.438 64.111C168.078 65.9144 167.717 68.6195 167.446 70.9639C167.356 71.8656 167.176 72.7673 167.086 73.4887C166.274 79.4399 163.389 81.3335 163.208 81.4237L162.848 81.6942ZM151.667 64.7422L163.118 79.8006C163.84 79.0793 165.372 77.0955 165.913 73.3083C166.004 72.4968 166.094 71.6853 166.274 70.7836C166.635 68.0785 166.995 64.9225 167.446 63.2093L167.627 62.5781L168.258 62.6683C168.528 62.7584 168.979 62.7584 169.16 62.5781C169.52 62.2174 169.43 60.8648 169.34 59.7828C169.34 59.4221 169.25 59.0614 169.25 58.7909C169.069 54.8234 166.184 54.0119 166.094 54.0119L165.643 53.9217L165.553 53.4709C165.372 51.3068 161.946 50.5854 161.946 50.4952L161.315 50.3149L161.495 49.6837C161.946 47.4294 162.577 45.8064 162.938 44.544C163.479 43.0111 163.749 42.2898 163.389 41.6586C163.118 41.2077 162.938 40.9372 162.667 40.9372C162.397 40.9372 161.134 41.2077 158.79 46.0769L158.429 46.8884L157.798 46.2572C157.347 45.8965 156.355 46.6179 155.905 46.8884C152.929 49.1427 151.576 55.5448 152.568 62.9388V63.1191L152.478 63.2995C152.117 63.8405 151.847 64.2913 151.667 64.7422Z" fill="#260C70"/>
<path d="M158.61 45.085L145.716 58.0695C144.183 59.6024 146.617 62.037 148.691 59.9631L156.175 52.5691C156.536 50.1345 157.077 47.6999 158.61 45.085Z" fill="#260C70"/>
<path d="M165.914 40.1257C165.553 39.7651 164.381 40.1257 163.389 40.5766C164.291 41.7488 163.93 43.462 163.569 44.9048L164.561 43.9129C165.373 43.1014 166.545 40.7569 165.914 40.1257Z" fill="#3E0C70"/>
<path d="M161.134 51.3068L160.503 53.1102C160.323 53.6512 161.134 53.9217 161.405 53.3807C161.585 52.7495 161.856 52.2085 162.036 51.5773C162.216 51.0363 161.315 50.856 161.134 51.3068Z" fill="#260C70"/>
<path d="M169.07 58.8814C168.98 58.3404 168.078 58.5207 168.168 59.1519C168.258 59.8733 168.168 60.5946 167.897 61.316C167.717 61.857 168.529 62.1275 168.799 61.5865C169.16 60.6848 169.16 59.7831 169.07 58.8814Z" fill="#030047"/>
<path d="M157.708 45.8967C156.626 47.9706 155.454 51.397 155.093 53.7414C155.003 54.2825 155.905 54.553 155.995 54.012C156.356 51.7577 157.438 48.4214 158.52 46.4377C158.79 45.8065 157.979 45.3556 157.708 45.8967Z" fill="#260C70"/>
<path d="M165.102 54.0117C164.922 54.3724 164.831 54.8232 164.651 55.1839C164.471 55.7249 165.282 55.9954 165.553 55.4544C165.733 55.0937 165.823 54.6429 166.004 54.2822C166.184 53.7412 165.372 53.4707 165.102 54.0117Z" fill="#260C70"/>
<path d="M151.216 64.1108C146.437 73.6689 143.371 77.1856 137.69 78.8087C129.124 81.3334 108.655 70.0621 95.8512 72.136L92.7854 98.3756C92.7854 98.3756 111.36 110.458 132.821 108.745C151.396 107.212 163.749 88.1864 166.004 78.8087C163.749 72.6771 156.265 67.5373 151.216 64.1108Z" fill="#A62CDF"/>
<path d="M128.493 109.647C108.926 109.647 92.5149 99.0969 92.3346 99.0068L91.9739 98.7363L95.1298 71.595L95.6708 71.5048C102.434 70.3326 111.09 72.8574 119.386 75.2018C126.599 77.2757 133.452 79.2594 137.42 78.0872C142.83 76.5543 145.806 73.3082 150.585 63.7502L150.945 63.0288L151.576 63.4797C156.626 66.9061 164.291 72.0458 166.635 78.5381L166.725 78.7184L166.635 78.8988C164.291 88.4568 151.667 107.843 132.911 109.376C131.378 109.557 129.936 109.647 128.493 109.647ZM93.5068 98.1051C96.1217 99.7281 113.344 109.737 132.731 108.114C150.765 106.671 162.938 88.1863 165.282 78.8988C163.118 73.1279 156.356 68.439 151.486 65.1027C146.797 74.4804 143.551 77.8167 137.871 79.4398C133.542 80.7022 126.509 78.6283 119.025 76.5544C111.451 74.3903 102.885 71.8655 96.3922 72.7672L93.5068 98.1051Z" fill="#A62CDF"/>
<path d="M112.803 107.032C112.713 107.032 112.623 107.032 112.533 106.942C112.533 106.942 109.377 105.589 106.311 105.589C105.95 105.589 105.68 105.319 105.59 104.958C105.59 104.598 105.95 104.237 106.311 104.237C109.647 104.237 112.893 105.589 113.074 105.68C113.434 105.86 113.615 106.221 113.434 106.581C113.254 106.852 113.074 107.032 112.803 107.032Z" fill="#3E0C70"/>
<path d="M193.866 41.4783H165.192C164.831 41.4783 164.471 41.2078 164.471 40.7569C164.471 40.3061 164.741 40.0356 165.192 40.0356H192.514V3.3362H154.101V21.6408C154.101 22.0015 153.83 22.3621 153.38 22.3621C152.929 22.3621 152.658 22.0916 152.658 21.6408V1.98364H193.866V41.4783Z" fill="#260C70"/>
<path d="M183.587 9.64826C182.685 9.19741 181.603 9.46791 181.152 10.3696L172.496 26.3298L167.176 20.7392C166.545 20.108 165.553 19.9276 164.831 20.3785C163.839 21.0097 163.749 22.2721 164.471 23.0836L170.602 29.6661L171.955 31.1088C172.586 31.74 173.578 31.6498 174.029 30.8383L175.02 29.125L184.308 12.0829C184.759 11.1812 184.398 10.0991 183.587 9.64826Z" fill="#A62CDF"/>
<path d="M195.85 0H190.35V5.50037H195.85V0Z" fill="#3E0C70"/>
<path d="M173.017 108.019L164.571 127.06L183.611 135.506L192.057 116.466L173.017 108.019Z" fill="white"/>
<path d="M184.038 136.428L163.75 127.411L172.767 107.123L193.055 116.14L184.038 136.428ZM165.463 126.69L183.317 134.625L191.252 116.771L173.398 108.836L165.463 126.69Z" fill="#260C70"/>
<path d="M169.972 86.4732L189.539 103.335C189.539 103.335 197.113 90.9817 189.539 84.0386C180.071 75.3823 169.972 86.4732 169.972 86.4732Z" fill="white"/>
<path d="M189.719 104.417L169.07 86.5636L169.521 86.0226C169.701 85.7521 174.751 80.3418 181.153 80.0713C184.399 79.8909 187.374 81.0631 189.989 83.4977C197.924 90.7114 190.44 103.155 190.08 103.696L189.719 104.417ZM170.963 86.4734L189.358 102.343C190.801 99.7284 195.129 90.1704 189.088 84.5798C186.653 82.4157 184.038 81.3337 181.243 81.4238C176.464 81.6944 172.316 85.1209 170.963 86.4734Z" fill="#3E0C70"/>
<path d="M181.424 105.77C184.461 105.77 186.924 103.307 186.924 100.269C186.924 97.2317 184.461 94.769 181.424 94.769C178.386 94.769 175.923 97.2317 175.923 100.269C175.923 103.307 178.386 105.77 181.424 105.77Z" fill="white"/>
<path d="M181.423 106.401C177.997 106.401 175.292 103.606 175.292 100.269C175.292 96.933 178.087 94.1377 181.423 94.1377C184.76 94.1377 187.555 96.933 187.555 100.269C187.555 103.606 184.85 106.401 181.423 106.401ZM181.423 95.4903C178.808 95.4903 176.644 97.6543 176.644 100.269C176.644 102.884 178.808 105.048 181.423 105.048C184.038 105.048 186.202 102.884 186.202 100.269C186.202 97.6543 184.128 95.4903 181.423 95.4903Z" fill="#3E0C70"/>
<path d="M196.211 140.576C196.031 140.576 195.76 140.486 195.67 140.305L192.604 136.157C192.424 135.887 192.424 135.436 192.785 135.256C193.055 135.075 193.506 135.075 193.686 135.436L196.752 139.584C196.933 139.854 196.932 140.305 196.572 140.486C196.482 140.576 196.301 140.576 196.211 140.576Z" fill="#260C70"/>
<path d="M132.371 125.698C132.19 125.698 132.01 125.608 131.83 125.518C131.559 125.247 131.559 124.796 131.92 124.526L138.953 118.214C139.223 117.943 139.674 117.943 139.945 118.304C140.215 118.575 140.215 119.025 139.855 119.296L132.821 125.608C132.641 125.698 132.551 125.698 132.371 125.698Z" fill="#260C70"/>
<path d="M159.422 112.713C159.241 112.713 159.061 112.623 158.881 112.443L156.356 109.377C156.085 109.106 156.176 108.656 156.446 108.385C156.717 108.115 157.167 108.205 157.438 108.475L159.963 111.541C160.233 111.811 160.143 112.262 159.873 112.533C159.692 112.713 159.602 112.713 159.422 112.713Z" fill="#260C70"/>
<path d="M193.145 53.5612C192.965 53.5612 192.875 53.471 192.694 53.3808C192.424 53.1103 192.334 52.7496 192.604 52.3889L195.67 48.692C195.941 48.4215 196.301 48.3313 196.662 48.6018C196.932 48.8723 197.023 49.233 196.752 49.5937L193.686 53.2906C193.506 53.471 193.326 53.5612 193.145 53.5612Z" fill="#3E0C70"/>
<path d="M221.639 87.1949C221.459 87.1949 221.279 87.1047 221.098 86.9244L214.786 79.35C214.516 79.0795 214.606 78.6287 214.876 78.3582C215.147 78.0877 215.598 78.1778 215.868 78.4483L222.18 86.0226C222.451 86.2932 222.361 86.744 222.09 87.0145C221.91 87.1948 221.82 87.1949 221.639 87.1949Z" fill="#3E0C70"/>
<path d="M145.175 22.4526C145.085 22.4526 145.085 22.4526 144.994 22.4526L139.224 21.1C138.863 21.0098 138.592 20.6491 138.683 20.2885C138.773 19.9278 139.133 19.6573 139.494 19.7475L145.265 21.1C145.626 21.1902 145.896 21.5508 145.806 21.9115C145.716 22.2722 145.445 22.4526 145.175 22.4526Z" fill="#260C70"/>
<path d="M204.507 61.1357H176.283V89.3591H204.507V61.1357Z" fill="white"/>
<path d="M205.138 89.9899H175.562V60.4141H205.138V89.9899ZM176.915 88.6374H203.786V61.7666H176.915V88.6374Z" fill="#3E0C70"/>
<path d="M145.134 170.553V129.173H186.514V170.553H145.134Z" fill="white" stroke="#3E0C70"/>
<path d="M187.735 171.775H144.003V128.042H187.735V171.775ZM145.265 170.422H186.293V129.395H145.265V170.422Z" fill="#3E0C70"/>
<path d="M196.211 81.7847C196.031 81.7847 195.85 81.6946 195.76 81.6044L184.038 69.8822C183.768 69.6117 183.768 69.1609 184.038 68.8904C184.309 68.6199 184.759 68.6199 185.03 68.8904L196.662 80.5223C196.932 80.7928 196.932 81.2437 196.662 81.5142C196.572 81.6946 196.391 81.7847 196.211 81.7847Z" fill="#3E0C70"/>
<path d="M184.489 81.7844C184.309 81.7844 184.128 81.6943 184.038 81.6041C183.768 81.3336 183.768 80.8827 184.038 80.6122L195.67 68.9802C195.941 68.7097 196.391 68.7097 196.662 68.9802C196.932 69.2507 196.932 69.7016 196.662 69.9721L185.03 81.6041C184.85 81.6943 184.669 81.7844 184.489 81.7844Z" fill="#3E0C70"/>
<path d="M175.201 143.191H156.897C156.536 143.191 156.176 142.92 156.176 142.469C156.176 142.019 156.446 141.748 156.897 141.748H175.201C175.562 141.748 175.923 142.019 175.923 142.469C175.923 142.92 175.562 143.191 175.201 143.191Z" fill="#260C70"/>
<path d="M175.201 148.962H156.897C156.536 148.962 156.176 148.691 156.176 148.24C156.176 147.79 156.446 147.519 156.897 147.519H175.201C175.562 147.519 175.923 147.79 175.923 148.24C175.923 148.691 175.562 148.962 175.201 148.962Z" fill="#260C70"/>
<path d="M175.202 154.642H171.505C171.144 154.642 170.783 154.372 170.783 153.921C170.783 153.47 171.054 153.2 171.505 153.2H175.202C175.562 153.2 175.923 153.47 175.923 153.921C175.923 154.372 175.562 154.642 175.202 154.642Z" fill="#260C70"/>
<path d="M168.078 154.642H156.897C156.536 154.642 156.176 154.372 156.176 153.921C156.176 153.47 156.446 153.2 156.897 153.2H168.078C168.439 153.2 168.799 153.47 168.799 153.921C168.799 154.372 168.439 154.642 168.078 154.642Z" fill="#260C70"/>
</svg>
