<svg width="138" height="156" fill="none" xmlns="http://www.w3.org/2000/svg"><path d="M80.019 61.505l29.709-2.516-1.699 24.475-25.835 1.7-2.175-23.66z" fill="#fff"/><path d="M109.185 59.601l-1.7 23.387-24.882 1.632-2.108-22.64 28.69-2.379zm1.088-1.156l-30.798 2.652 2.244 24.61 26.718-1.767 1.836-25.495z" fill="#030047"/><path d="M91.372 79.793a.465.465 0 01-.475-.476l-.884-6.935-3.128-1.02c-.272-.067-.408-.407-.34-.611.068-.204.408-.408.612-.34l3.672 1.224.951 7.546c.136.34-.068.612-.408.612.068 0 .068 0 0 0z" fill="#030047"/><path d="M41.675 50.967L35.081 78.16 18.424 88.495l8.363-30.254.747-.34 4.215-2.107.748-.34 9.178-4.487z" fill="#7B2CDF"/><path d="M77.028 88.02H26.99l-1.223-2.04 12.985-7.887 23.523-14.345 8.77 14.345 5.983 9.926z" fill="#fff"/><path d="M62.07 64.428l8.635 14.21 5.439 8.837H27.33l-.816-1.36 11.762-7.206L62.07 64.43zm.34-1.427L37.733 78.093l-12.645 7.75 1.631 2.72H77.98l-6.322-10.402-9.246-15.16z" fill="#030047"/><path d="M41.267 83.124c-.204 0-.34-.068-.408-.272-.136-.272-.068-.544.204-.68L59.42 70.954c.272-.135.544-.067.68.137.136.271.068.543-.204.68L41.54 82.987c-.136.068-.204.136-.272.136zm3.263 5.439c-.203 0-.34-.068-.407-.272-.136-.272-.068-.544.204-.68l18.356-11.218c.272-.136.544-.067.68.136.136.204.068.544-.204.68L44.803 88.427c-.069.068-.136.136-.272.136z" fill="#030047"/><path d="M78.387 18.606c4.351-1.36 17.065-4.69 27.874 13.393 10.878 18.084 4.011 33.653 4.011 33.653L77.707 64.02s-1.02-18.356-3.943-30.117c-.612-2.584-2.311-13.121 4.623-15.297z" fill="#A62CDF"/><path d="M28.01 57.086c-.271-4.351 1.36-11.49 7.071-18.56 3.74 1.971 7.343 4.215 10.402 6.187-2.243 2.311-3.603 4.555-4.215 5.914L28.01 57.086z" fill="#fff"/><path d="M35.217 39.137c3.4 1.836 6.663 3.808 9.518 5.643-1.971 2.108-3.195 4.147-3.807 5.439l-12.441 6.119c-.068-4.215 1.631-10.674 6.73-17.2zm-.272-1.291c-6.118 7.478-7.954 15.228-7.342 20.055l14.14-6.934c.613-1.36 2.04-3.875 4.624-6.323-3.807-2.447-7.547-4.759-11.422-6.798z" fill="#3E0C70"/><path d="M38.48 31.727c-2.719 2.652-6.73 7.274-8.43 11.15 4.012 1.631 11.898 4.759 15.841 6.526 1.428-1.971 7.614-7.478 10.742-9.314 10.062-5.914 22.503-8.906 22.503-8.906l1.564-13.8c-13.87-1.225-30.458 2.922-42.22 14.344z" fill="#A62CDF"/><path d="M73.63 31.863a.465.465 0 01-.477-.476l-.476-3.943c-.068-.272.136-.544.476-.544.272 0 .544.136.544.476l.476 3.943c0 .272-.204.476-.544.544z" fill="#3E0C70"/><path d="M33.653 51.85c4.35-2.515 4.079 3.944 4.079 3.944s-1.904 4.215.816 4.827c1.7.407 5.71-8.159 2.651-12.782" fill="#fff"/><path d="M38.752 61.164h-.272c-.748-.203-1.292-.611-1.564-1.223-.747-1.496.136-3.74.34-4.215 0-.884-.136-3.128-1.155-3.74-.476-.271-1.224-.203-2.176.34-.272.136-.544.068-.68-.204s-.068-.543.204-.68c1.292-.747 2.312-.815 3.196-.34 1.767 1.088 1.7 4.352 1.7 4.76v.068l-.069.068c-.272.611-.884 2.447-.408 3.467.136.34.476.544.884.68.068 0 .612-.204 1.292-1.428 1.563-2.583 2.787-7.546.816-10.538-.136-.204-.068-.544.136-.68.203-.136.543-.068.68.136 2.583 3.808.543 9.79-1.088 12.17-.68.952-1.292 1.36-1.836 1.36zm78.931 16.929l-9.178 5.847-7.207 4.555H18.424L34.81 78.093h3.943L25.766 85.98l1.224 2.04h50.037l-5.982-9.926h46.638z" fill="#030047"/><path d="M101.23 88.495H18.424v67.238h82.806V88.495zm16.453 56.836l-16.453 10.402V88.495l16.453-10.402v67.238z" fill="#7B2CDF"/><path d="M101.23 152.537a.536.536 0 01-.543-.544V93.186c0-.272.203-.544.543-.544s.544.204.544.544v58.807a.536.536 0 01-.544.544z" fill="#fff"/><path d="M43.715 88.495v.136c0 17.608-11.218 26.038-25.29 26.514V88.563h25.29v-.068zM36.78 111.61l-5.779 4.623 7.139 3.196-1.36-7.819z" fill="#030047"/><path d="M91.44 103.316H50.853v4.079H91.44v-4.079z" fill="#fff"/><path d="M75.192 115.078h-7.07c-.816 0-1.428-.68-1.428-1.428 0-.816.68-1.428 1.428-1.428h7.07c.816 0 1.428.68 1.428 1.428.068.816-.612 1.428-1.428 1.428zm7.75 0h-2.38c-.815 0-1.427-.68-1.427-1.428 0-.816.68-1.428 1.427-1.428h2.38c.816 0 1.428.68 1.428 1.428.068.816-.612 1.428-1.428 1.428zm7.003 0h-2.447c-.816 0-1.428-.68-1.428-1.428 0-.816.68-1.428 1.428-1.428h2.379c.816 0 1.428.68 1.428 1.428.068.816-.544 1.428-1.36 1.428z" fill="#030047"/><path d="M66.218 130.374h-47.25v24.815h47.25v-24.815z" fill="#fff"/><path d="M65.674 130.918v23.795h-46.23v-23.795h46.23zm1.02-1.02h-48.27v25.835h48.27v-25.835z" fill="#030047"/><path d="M51.737 155.121c-.136 0-.204 0-.272-.068l-32.293-23.591c-.204-.136-.272-.476-.136-.68.136-.204.476-.272.68-.136l32.293 23.591c.204.136.272.476.136.68-.068.136-.272.204-.408.204z" fill="#030047"/><path d="M33.313 155.121c-.136 0-.34-.068-.408-.204-.136-.204-.136-.544.136-.68l32.021-23.591c.204-.136.544-.136.68.136.136.204.136.544-.136.68l-32.02 23.591c-.069.068-.137.068-.273.068zm90.624-56.768h-2.651v28.894h2.651V98.353z" fill="#030047"/><path d="M61.866 59.737h-.136c-.272-.067-.408-.34-.34-.611l.884-3.4c.068-.271.34-.407.612-.34.272.069.408.34.34.612l-.884 3.4c0 .204-.204.34-.476.34z" fill="#A62CDF"/><path d="M13.189 71.771l-6.05 3.875 6.458 2.855-.408-6.73z" fill="#030047"/><path d="M53.321 63.507l-3.99-3.99-3.99 3.99 3.99 3.99 3.99-3.99z" fill="#3E0C70"/><path d="M65.334 84.96c-.136 0-.204-.068-.34-.136l-2.176-1.904c-.204-.204-.272-.475-.068-.747.204-.204.476-.272.748-.068l2.176 1.903c.203.204.271.476.067.748-.135.136-.272.204-.407.204zm-8.023-24.747c-.136 0-.34-.068-.408-.272l-3.603-5.71c-.136-.272-.068-.544.136-.68.272-.136.544-.068.68.136l3.603 5.71c.136.272.068.544-.136.68-.068.136-.136.136-.272.136z" fill="#A62CDF"/><path d="M81.786 55.727a.52.52 0 01-.34-.136.533.533 0 010-.748l4.283-4.283a.533.533 0 01.748 0 .533.533 0 010 .747l-4.283 4.284c-.204.136-.34.136-.408.136z" fill="#E4E4EF"/><path d="M73.628 67.896a.465.465 0 01-.476-.476l-.272-2.584c0-.272.204-.543.476-.543s.544.203.544.475l.272 2.584c0 .272-.204.476-.544.544z" fill="#A62CDF"/><path d="M88.72 61.097l3.4-2.651L92.8 63l-4.08-1.904z" fill="#F2F2F9"/><path d="M62.954 45.257l3.74-2.176.135 4.895-3.875-2.72zm-21.279 26.99h-.136c-.272-.068-.476-.34-.408-.612l.884-3.807c.068-.272.34-.476.611-.408.273.068.476.34.408.612l-.883 3.807c-.068.272-.272.408-.476.408z" fill="#A62CDF"/><path d="M77.367 88.02c4.963-3.06 11.693-4.623 19.988-4.623 2.447 0 5.031.135 7.75.407.816.068 1.496.204 2.108.34l-6.119 3.875H77.367z" fill="#fff"/><path d="M97.355 82.853v1.02c2.447 0 5.031.135 7.682.407.272 0 .544.068.816.068l-4.827 3.06H79.339c4.69-2.38 10.741-3.604 18.016-3.604v-.951zm0 0c-8.294 0-15.977 1.495-21.688 5.642h25.631l7.206-4.555c-.815-.272-1.903-.476-3.331-.68-2.651-.204-5.235-.407-7.818-.407zM22.571 66.06h-.068l-8.226-1.496c-.272-.068-.476-.34-.408-.612.068-.272.34-.476.612-.408l8.226 1.496c.272.068.476.34.408.612-.136.204-.34.408-.544.408z" fill="#030047"/><path d="M17.677 69.391h-.068c-.272-.068-.476-.34-.408-.611l1.495-8.227c.068-.271.34-.475.612-.407.272.068.476.34.408.611l-1.495 8.227c-.069.204-.273.407-.544.407z" fill="#030047"/><path d="M73.628 82.852a5.779 5.779 0 100-11.557 5.779 5.779 0 000 11.557z" fill="#E4E4EF"/><path d="M28.35 66.74l7.75 6.595-8.634 3.943.884-10.538z" fill="#fff"/><path d="M28.758 67.76l6.39 5.439-7.138 3.263.748-8.702zm-.816-2.04l-1.088 12.374 10.198-4.623-9.11-7.75z" fill="#030047"/><path d="M123.937 51.783l-16.384 10.47-6.323 26.378 16.452-10.47 6.255-26.378z" fill="#7B2CDF"/><path d="M103.134 87.815c-.136 0-.34-.068-.408-.204-.136-.204-.068-.544.136-.68l12.645-8.022c.204-.136.544-.068.68.136.136.204.068.544-.136.68l-12.645 8.022c-.136.068-.204.068-.272.068zM87.021 17.043c19.58-.816 37.8 4.759 44.123 12.645 6.934 8.634 3.399 25.63-5.099 30.05-2.108 1.087-4.487 1.36-5.779 1.97-3.943 1.837-4.827 1.633-6.119.613 0 0-3.263 2.04-4.215-.476 0 0-1.223 3.195-3.535 2.38-2.311-.816.476-7.14 6.663-10.402 6.254-3.264 9.382-11.422 5.914-16.317-3.467-4.895-24.95-10.878-24.95-10.878l-7.003-9.585z" fill="#fff"/><path d="M107.213 64.904c-.272 0-.544-.068-.884-.136-.68-.204-1.088-.816-1.156-1.631-.204-2.584 2.924-7.207 7.751-9.722 3.331-1.768 5.915-5.1 6.798-8.702.612-2.584.204-5.031-1.087-6.867-3.4-4.69-24.407-10.606-24.68-10.674l-.135-.067-7.75-10.538.951-.068c19.24-.816 37.936 4.623 44.599 12.849 3.399 4.283 4.623 10.878 3.195 17.676-1.292 6.119-4.419 11.014-8.43 13.121-1.292.68-2.652 1.02-3.807 1.36-.816.204-1.496.408-1.972.612-3.739 1.768-4.963 1.768-6.391.748-.611.34-2.039.951-3.195.544-.34-.136-.68-.34-.884-.612-.679 1.088-1.631 2.107-2.923 2.107zM94.432 26.221c2.175.611 21.619 6.254 25.018 11.013 1.496 2.04 1.904 4.76 1.224 7.683-.884 3.875-3.739 7.478-7.342 9.382-4.691 2.447-7.343 6.73-7.207 8.77.068.612.34.68.476.747 1.768.612 2.856-2.039 2.856-2.107l.475-1.224.476 1.224c.136.476.408.748.816.816.884.272 2.244-.34 2.652-.612l.339-.204.272.204c1.02.816 1.7 1.156 5.575-.68.612-.272 1.292-.476 2.108-.68 1.156-.34 2.447-.68 3.603-1.291 3.739-1.972 6.731-6.595 7.954-12.374 1.36-6.526.272-12.781-2.991-16.86-6.323-7.886-24.203-13.053-42.763-12.51l6.459 8.703z" fill="#3E0C70"/><path d="M119.111 37.574c1.903 2.584 1.835 6.187.475 9.382 4.42 1.632 11.082 3.195 15.365 5.167 3.331-7.002 3.399-17.268-1.835-22.775-10.198-10.538-26.379-13.121-45.959-12.305l9.246 15.976c-.068 0 19.172-.34 22.708 4.555z" fill="#A62CDF"/><path d="M114.012 56.202c-1.768 1.224-3.196 2.788-4.147 4.691-.204.408.407.748.611.34.952-1.835 2.244-3.33 3.944-4.419.271-.272-.068-.883-.408-.612zm3.807 1.156c-1.428 1.02-2.516 2.311-3.331 3.875-.204.408.407.748.611.34.748-1.428 1.768-2.652 3.06-3.603.34-.272 0-.884-.34-.612zm-11.966-23.319h-.136l-2.787-.884c-.272-.068-.408-.34-.34-.612.068-.272.34-.408.612-.34l2.787.884c.272.068.408.34.34.612a.511.511 0 01-.476.34zm-94.498 85.866a.52.52 0 01-.34-.136l-10.81-10.81a.534.534 0 010-.748.533.533 0 01.748 0l10.81 10.81a.534.534 0 010 .748c-.136.068-.272.136-.408.136z" fill="#030047"/><path d="M.545 119.905a.52.52 0 01-.34-.136.534.534 0 010-.748l10.81-10.81a.533.533 0 01.748 0 .534.534 0 010 .748l-10.81 10.81c-.136.068-.272.136-.408.136zm10.809 9.246H.544a.536.536 0 01-.544-.544c0-.34.204-.544.544-.544h10.81c.272 0 .543.204.543.544 0 .34-.271.544-.543.544z" fill="#030047"/><path d="M89.605 8a7.653 7.653 0 00-.816-1.427v-.068C85.66 2.018 79.95.658 75.939 3.445c-1.903 1.36-2.99 3.468-3.263 5.78-.34 2.515.612 5.098 1.632 7.342 2.311 5.166 7.546 7.478 12.849 3.059 1.156-.952 2.04-2.176 2.651-3.603 2.04-.408 3.264-1.904 3.468-3.74.204-2.107-1.36-4.486-3.671-4.282z" fill="#fff"/><path d="M81.446 22.482a6.704 6.704 0 01-1.631-.204c-2.516-.612-4.76-2.584-6.051-5.507-.952-2.108-2.04-4.895-1.632-7.615.34-2.651 1.564-4.827 3.468-6.118a8.777 8.777 0 016.662-1.36c2.72.476 5.235 2.176 6.935 4.555.272.408.543.816.747 1.292.952 0 1.836.408 2.584 1.156a4.44 4.44 0 011.224 3.739c-.272 2.107-1.632 3.67-3.604 4.147a9.88 9.88 0 01-2.719 3.535c-1.972 1.564-4.011 2.38-5.983 2.38zm-.883-19.988a7.88 7.88 0 00-4.42 1.36c-1.7 1.155-2.719 3.059-3.059 5.438-.34 2.448.612 4.963 1.564 7.07 1.156 2.584 3.127 4.42 5.37 4.964 2.176.476 4.488-.204 6.731-2.04a8.41 8.41 0 002.516-3.399l.136-.272.272-.068c1.7-.34 2.855-1.564 3.059-3.331.136-1.02-.272-2.176-.952-2.924-.408-.408-1.088-.883-2.108-.815h-.34l-.135-.34c-.272-.544-.476-.952-.748-1.36-1.564-2.244-3.807-3.74-6.323-4.215-.544 0-1.088-.068-1.564-.068z" fill="#3E0C70"/><path d="M80.576 12.979a.68.68 0 10-1.145-.733.68.68 0 001.145.733zM77.57 17.79c-.68-1.36-1.155-2.787-1.495-4.283-.068-.408.612-.544.68-.136.272 1.428.748 2.788 1.428 4.147.204.34-.408.68-.612.272zm9.995-4.895c.136-1.563 1.36-2.923 2.991-3.127.408-.068.612.612.136.68a2.75 2.75 0 00-2.447 2.447c-.068.476-.748.476-.68 0zm-.68-3.059c-.476 1.7-2.651-.612-6.799-1.428-1.835-.34-9.654 2.38-10.877-.272-1.836-3.875 3.331-6.118 6.662-4.69-.34-1.428 1.292-3.536 3.468-2.448 5.846-2.923 11.15.884 10.47 7.41 0 0-2.38.884-2.924 1.428z" fill="#3E0C70"/></svg>