<svg width="223" height="276" fill="none" xmlns="http://www.w3.org/2000/svg"><path d="M112.353 244.452l-.632 26.51 45.987.451s.271-5.41-8.476-9.468c-8.746-4.057-10.55-20.108-10.55-20.108l-26.329 2.615z" fill="#A62CDF"/><path d="M158.339 272.044L111 271.593l.631-27.772 27.592-2.705.091.631c0 .18 1.893 15.69 10.189 19.567 9.017 4.148 8.927 9.828 8.927 10.099l-.091.631zm-45.986-1.803l44.544.451c-.271-1.443-1.533-5.14-8.025-8.116-8.026-3.697-10.37-16.862-10.821-19.927l-25.067 2.524-.631 25.068zm-82.777-36.97l-9.828 24.616 42.92 16.412s2.075-4.96-4.688-11.813c-6.763-6.853-2.886-22.542-2.886-22.542l-25.518-6.673z" fill="#A62CDF"/><path d="M63.12 275.2l-44.184-16.952 10.28-25.789 26.78 7.034-.18.631c0 .18-3.697 15.419 2.705 21.911 7.033 7.034 4.869 12.354 4.779 12.534l-.18.631zm-42.47-17.763l41.568 15.96c.27-1.443.36-5.41-4.69-10.46-6.22-6.312-3.876-19.387-3.245-22.452l-24.346-6.402-9.288 23.354zm44.543-121.009h-.54c-.361 0-8.026-.361-17.043-7.935l-.811-.631 23.804-11.542-5.41 20.108zm-15.96-8.296c7.033 5.591 13.165 6.673 14.878 6.853l4.328-16.231-19.206 9.378z" fill="#A62CDF"/><path d="M62.759 125.337c-7.484 12.443-10.64 47.159-18.936 64.922-8.295 17.764-18.034 46.438-18.034 46.438l34.085 14.427s23.173-51.847 25.788-78.899c2.615-27.051 1.984-50.495 1.984-50.495l-24.887 3.607z" fill="#7B2CDF"/><path d="M77.186 138.863c.722 14.427 19.207 41.658 22.182 61.135 2.976 19.477 10.73 54.553 10.73 54.553l36.339-6.853s-4.779-54.463-20.559-88.096c-11.542-24.617-28.133-40.937-28.133-40.937l-20.559 20.198z" fill="#7B2CDF"/><path d="M84.76 162.307c-.27 0-.45-.091-.63-.361l-2.255-4.058-6.763-2.434c-.36-.091-.541-.541-.45-.902.09-.361.54-.541.9-.451l7.215 2.525 2.434 4.508c.18.361.09.722-.27.902.09.271 0 .271-.18.271z" fill="#fff"/><path d="M55.004 253.649c-1.353.722-2.795 1.533-4.148 2.255-.541.27-.09 1.082.45.811 1.354-.721 2.796-1.533 4.149-2.254.45-.361 0-1.172-.451-.812zm.631 2.796c-1.082.902-2.254 1.713-3.336 2.615-.45.36 0 1.172.45.811l3.337-2.615c.451-.36 0-1.172-.45-.811zm87.736-1.083a60.455 60.455 0 01-1.713 3.427c-.271.541.541.992.812.451l1.713-3.427c.27-.541-.541-.992-.812-.451zm2.615 3.066a60.455 60.455 0 01-1.713 3.427c-.271.541.541.992.811.451l1.713-3.427c.181-.541-.541-.992-.811-.451z" fill="#260C70"/><path d="M139.403 246.616a.617.617 0 01-.631-.631c-1.442-52.299-32.551-109.197-32.822-109.738-.18-.36-.09-.721.271-.901.36-.181.721-.091.901.27.271.541 31.47 57.709 33.003 110.369-.09.27-.361.631-.722.631z" fill="#fff"/><path d="M112.172 147.879h-.27c-.361-.09-.541-.541-.361-.901 1.713-4.599-.361-10.911-.361-11.001-.09-.361.09-.721.451-.902.361-.09.721.09.902.451.09.271 2.344 6.853.36 11.903-.18.27-.45.45-.721.45zm-4.689-101.532c2.796 6.673 2.976 13.797-5.77 16.592-5.952 1.893-13.075-.902-15.87-7.575-2.796-6.672-.18-14.066 5.77-16.59 5.952-2.526 13.075.9 15.87 7.573z" fill="#fff"/><path d="M97.925 64.201c-5.32 0-10.55-3.246-12.714-8.566-1.442-3.336-1.533-7.033-.45-10.37 1.172-3.336 3.516-5.86 6.582-7.123 6.312-2.615 13.796.902 16.771 7.935 1.984 4.779 2.255 8.837.902 11.903-1.172 2.614-3.607 4.418-7.033 5.59-1.353.45-2.705.631-4.058.631zm-2.164-25.518c-1.262 0-2.615.27-3.877.812-2.705 1.172-4.78 3.336-5.771 6.312-.992 2.975-.902 6.311.36 9.377 2.796 6.583 9.83 8.837 15.059 7.124 3.156-.992 5.23-2.615 6.222-4.87 1.262-2.705.992-6.402-.902-10.82-1.984-4.87-6.582-7.935-11.09-7.935z" fill="#260C70"/><path d="M102.524 46.618a.902.902 0 100-1.804.902.902 0 000 1.804z" fill="#260C70"/><path d="M103.245 37.33c0-5.95-9.828.722-11.542 1.533-5.32.992-10.009 8.026-8.386 14.247 1.353 5.32 7.485 11.632 10.73 10.1 5.32-3.157 6.132-8.386 3.698-13.346.901-1.082-.18-2.705.27-3.967.541-2.074 5.23-6.493 5.23-8.566z" fill="#3E0C70"/><path d="M95.85 49.323c-9.918-.902-8.746 7.033-5.049 8.837 3.066 1.443 7.755.902 9.648-3.607 1.894-4.418-4.598-5.23-4.598-5.23z" fill="#fff"/><path d="M96.753 52.75c-1.894-.992-4.238-.542-5.59 1.172-.361.45.27 1.082.63.63 1.082-1.352 2.976-1.803 4.509-.991.45.27.902-.541.45-.812zm11.541-4.148c-.992-1.713-2.254-3.337-3.787-4.69-.451-.36-1.082.271-.631.632 1.443 1.353 2.615 2.795 3.607 4.509.27.45 1.082 0 .811-.451z" fill="#260C70"/><path d="M37.24 90.711c-3.606 12.083-.811 31.019 8.837 37.872 0 0 12.173-4.238 15.059-3.607 3.065-5.23 6.582-10.099 9.828-15.239-4.148-1.623-7.845-2.885-8.656-7.574-2.345-12.624 12.624-9.919 22.542-6.943 2.435-9.739 3.337-24.978 3.337-24.978-24.076-6.131-45.176 1.443-50.947 20.47z" fill="#A62CDF"/><path d="M45.987 129.394l-.27-.18c-9.739-6.943-12.805-26.149-9.108-38.683 5.68-19.026 26.42-27.412 51.668-20.92l.54.18v.542c0 .18-.9 15.419-3.335 25.067l-.18.721-.722-.18c-10.19-3.066-17.133-3.246-20.108-.631-1.533 1.443-2.074 3.697-1.533 6.763.812 4.238 4.058 5.5 8.115 7.033l.812.27-.36.722c-1.083 1.713-2.255 3.426-3.337 5.14-2.164 3.246-4.418 6.672-6.402 10.099l-.27.451-.452-.091c-1.983-.45-9.828 1.894-14.607 3.607l-.451.09zm-8.025-38.412c-3.607 11.902-.812 30.117 8.295 36.97 2.165-.722 11.272-3.788 14.518-3.607 1.984-3.336 4.148-6.583 6.222-9.739.992-1.442 1.983-2.885 2.885-4.418-3.967-1.533-7.484-3.066-8.296-7.845-.63-3.607 0-6.312 1.894-8.025 3.336-2.976 10.28-2.976 20.74.09 1.983-8.476 2.885-20.83 3.155-23.624-24.166-6.042-44.003 2.073-49.413 20.198z" fill="#A62CDF"/><path d="M72.678 125.066H48.512c-2.435 0-4.509-1.983-4.509-4.508V86.203c0-2.435 1.984-4.509 4.509-4.509h24.166c2.434 0 4.508 1.984 4.508 4.509v34.355a4.464 4.464 0 01-4.508 4.508z" fill="#fff"/><path d="M72.677 125.697H48.512c-2.795 0-5.14-2.344-5.14-5.139V86.203c0-2.796 2.345-5.14 5.14-5.14h24.165c2.796 0 5.14 2.344 5.14 5.14v34.355c0 2.885-2.254 5.139-5.14 5.139zM48.602 82.415c-2.074 0-3.787 1.714-3.787 3.788v34.355c0 2.074 1.713 3.787 3.787 3.787h24.166c2.074 0 3.787-1.713 3.787-3.787V86.203c0-2.074-1.713-3.788-3.787-3.788H48.602z" fill="#3E0C70"/><path d="M50.586 81.694h-1.984c-2.435 0-4.509 1.984-4.509 4.509v34.355c0 2.434 1.984 4.508 4.509 4.508h1.984V81.694z" fill="#3E0C70"/><path d="M47.34 117.762h-3.518c-1.623 0-2.975-1.352-2.975-2.975v-.541c0-1.623 1.352-2.976 2.975-2.976h3.517v6.492z" fill="#3E0C70"/><path d="M5.23 266.814a.71.71 0 01-.721-.721v-63.931c0-6.673 5.41-12.083 12.082-12.083h4.69c5.95 0 10.73-4.779 10.73-10.73v-53.651c0-6.673 5.41-12.083 12.082-12.083.361 0 .722.27.722.721 0 .451-.27.721-.722.721a10.7 10.7 0 00-10.73 10.731v53.651c0 6.673-5.41 12.083-12.083 12.083h-4.689a10.698 10.698 0 00-10.73 10.73v63.931c0 .361-.27.631-.631.631z" fill="#3E0C70"/><path d="M10.46 267.716H0v-5.23a5.233 5.233 0 015.23-5.23 5.233 5.233 0 015.23 5.23v5.23z" fill="#260C70"/><path d="M95.31 70.423C81.243 67.357 75.561 74.03 70.513 94.59c-5.05 20.559-14.067 32.461-14.067 32.461s40.937 11.542 58.34 9.017c0 .091 10.46-59.151-19.477-65.644z" fill="#A62CDF"/><path d="M108.926 137.239c-19.026 0-51.217-9.017-52.66-9.468l-.992-.27.631-.812c.09-.09 9.017-12.082 13.977-32.28 5.32-21.732 11.542-27.773 25.608-24.707 12.534 2.705 19.928 15.148 21.461 35.888 1.082 15.509-1.443 30.477-1.533 30.567l-.09.451-.451.09c-1.804.451-3.787.541-5.951.541zM57.528 126.78c6.132 1.623 40.848 10.82 56.627 8.836.902-5.68 8.476-58.52-18.935-64.472C81.965 68.26 76.374 73.76 71.234 94.86c-4.328 17.493-11.632 28.855-13.706 31.921z" fill="#A62CDF"/><path d="M84.129 72.858l1.442-7.124 19.207 2.164-2.345 8.657-18.304-3.697z" fill="#A62CDF"/><path d="M102.974 77.366L83.407 73.31l1.714-8.386 20.559 2.344-2.706 10.1zm-18.034-5.05l17.043 3.517 1.893-7.303-17.763-1.984-1.173 5.77z" fill="#A62CDF"/><path d="M169.791 58.7c-.271-4.598-3.697-5.41-3.697-5.41-.271-2.705-4.148-3.516-4.148-3.516 1.082-5.14 2.705-6.853 1.893-8.386-1.172-2.345-3.336-.721-5.861 4.418-.541-.45-1.352-.45-2.795.631-3.246 2.435-4.599 9.017-3.607 16.682v.09c-.27.631-.541 1.172-.811 1.623l12.173 15.96s2.795-1.713 3.516-7.394c.451-3.156.992-7.754 1.443-10.099 2.705.36 2.074-2.344 1.894-4.599z" fill="#fff"/><path d="M162.848 81.694l-12.805-16.862.181-.36c.27-.451.541-.902.721-1.443-1.082-7.845.451-14.608 3.877-17.132 1.173-.812 2.074-1.173 2.886-.992 1.803-3.517 3.336-5.23 4.779-5.23.541 0 1.352.27 1.894 1.443.541 1.172.18 2.254-.451 3.967-.361 1.082-.902 2.435-1.263 4.328 1.173.36 3.517 1.353 3.968 3.517.992.45 3.516 1.803 3.697 5.86 0 .362.09.632.09.993.09 1.533.27 3.066-.631 3.877-.361.36-.812.451-1.353.451-.36 1.803-.721 4.508-.992 6.853-.09.902-.27 1.803-.36 2.525-.812 5.95-3.697 7.844-3.878 7.935l-.36.27zm-11.181-16.952l11.451 15.059c.722-.722 2.254-2.706 2.795-6.493.091-.811.181-1.623.361-2.524.361-2.706.721-5.862 1.172-7.575l.181-.63.631.09c.27.09.721.09.902-.09.36-.362.27-1.714.18-2.796 0-.36-.09-.722-.09-.992-.181-3.968-3.066-4.78-3.156-4.78l-.451-.09-.09-.45c-.181-2.164-3.607-2.886-3.607-2.976l-.631-.18.18-.631c.451-2.255 1.082-3.878 1.443-5.14.541-1.533.811-2.254.451-2.885-.271-.451-.451-.722-.722-.722-.27 0-1.533.27-3.877 5.14l-.361.811-.631-.63c-.451-.361-1.443.36-1.893.63-2.976 2.255-4.329 8.657-3.337 16.05v.181l-.09.18c-.361.541-.631.992-.811 1.443z" fill="#260C70"/><path d="M158.61 45.085l-12.894 12.984c-1.533 1.533.901 3.968 2.975 1.894l7.484-7.394c.361-2.434.902-4.87 2.435-7.484z" fill="#260C70"/><path d="M165.914 40.126c-.361-.36-1.533 0-2.525.45.902 1.173.541 2.886.18 4.329l.992-.992c.812-.812 1.984-3.156 1.353-3.787z" fill="#3E0C70"/><path d="M161.134 51.307l-.631 1.803c-.18.541.631.812.902.27.18-.63.451-1.172.631-1.803.18-.54-.721-.721-.902-.27z" fill="#260C70"/><path d="M169.07 58.881c-.09-.54-.992-.36-.902.27.09.722 0 1.444-.271 2.165-.18.541.632.811.902.27.361-.901.361-1.803.271-2.705z" fill="#030047"/><path d="M157.708 45.897c-1.082 2.074-2.254 5.5-2.615 7.844-.09.541.812.812.902.271.361-2.254 1.443-5.59 2.525-7.574.27-.632-.541-1.082-.812-.541zm7.394 8.115c-.18.36-.271.811-.451 1.172-.18.54.631.811.902.27.18-.36.27-.811.451-1.172.18-.54-.632-.811-.902-.27z" fill="#260C70"/><path d="M151.216 64.11c-4.779 9.559-7.845 13.076-13.526 14.699-8.566 2.524-29.035-8.747-41.839-6.673l-3.066 26.24s18.575 12.082 40.036 10.369c18.575-1.533 30.928-20.559 33.183-29.936-2.255-6.132-9.739-11.272-14.788-14.698z" fill="#A62CDF"/><path d="M128.493 109.647c-19.567 0-35.978-10.55-36.158-10.64l-.361-.27 3.156-27.142.54-.09c6.764-1.172 15.42 1.352 23.716 3.697 7.213 2.074 14.066 4.057 18.034 2.885 5.41-1.533 8.386-4.779 13.165-14.337l.36-.721.631.45c5.05 3.427 12.715 8.567 15.059 15.06l.09.18-.09.18c-2.344 9.558-14.968 28.944-33.724 30.477a37.308 37.308 0 01-4.418.271zM93.507 98.105c2.615 1.623 19.837 11.632 39.224 10.009 18.034-1.443 30.207-19.928 32.551-29.215-2.164-5.771-8.926-10.46-13.796-13.796-4.689 9.377-7.935 12.714-13.615 14.337-4.329 1.262-11.362-.812-18.846-2.886-7.574-2.164-16.14-4.689-22.633-3.787l-2.885 25.338z" fill="#A62CDF"/><path d="M112.803 107.032c-.09 0-.18 0-.27-.09 0 0-3.156-1.353-6.222-1.353-.361 0-.631-.27-.721-.631 0-.36.36-.721.721-.721 3.336 0 6.582 1.352 6.763 1.443.36.18.541.541.36.901-.18.271-.36.451-.631.451z" fill="#3E0C70"/><path d="M193.866 41.478h-28.674a.71.71 0 01-.721-.721c0-.45.27-.721.721-.721h27.322v-36.7h-38.413v18.305c0 .36-.271.721-.721.721-.451 0-.722-.27-.722-.721V1.984h41.208v39.494z" fill="#260C70"/><path d="M183.587 9.648c-.902-.45-1.984-.18-2.435.722l-8.656 15.96-5.32-5.59c-.631-.632-1.623-.812-2.345-.361-.992.63-1.082 1.893-.36 2.705l6.131 6.582 1.353 1.443c.631.631 1.623.54 2.074-.27l.991-1.714 9.288-17.042c.451-.902.09-1.984-.721-2.435z" fill="#A62CDF"/><path d="M195.85 0h-5.5v5.5h5.5V0z" fill="#3E0C70"/><path d="M173.017 108.019l-8.446 19.041 19.04 8.446 8.446-19.04-19.04-8.447z" fill="#fff"/><path d="M184.038 136.428l-20.288-9.017 9.017-20.288 20.288 9.017-9.017 20.288zm-18.575-9.738l17.854 7.935 7.935-17.854-17.854-7.935-7.935 17.854z" fill="#260C70"/><path d="M169.972 86.473l19.567 16.862s7.574-12.353 0-19.296c-9.468-8.657-19.567 2.434-19.567 2.434z" fill="#fff"/><path d="M189.719 104.417L169.07 86.564l.451-.541c.18-.27 5.23-5.681 11.632-5.952 3.246-.18 6.221.992 8.836 3.427 7.935 7.213.451 19.657.091 20.198l-.361.721zm-18.756-17.944l18.395 15.87c1.443-2.615 5.771-12.173-.27-17.763-2.435-2.164-5.05-3.246-7.845-3.156-4.779.27-8.927 3.697-10.28 5.05z" fill="#3E0C70"/><path d="M181.424 105.77a5.5 5.5 0 10-.002-11.002 5.5 5.5 0 00.002 11.002z" fill="#fff"/><path d="M181.423 106.401c-3.426 0-6.131-2.795-6.131-6.132 0-3.336 2.795-6.131 6.131-6.131 3.337 0 6.132 2.795 6.132 6.131 0 3.337-2.705 6.132-6.132 6.132zm0-10.91c-2.615 0-4.779 2.163-4.779 4.778 0 2.615 2.164 4.779 4.779 4.779 2.615 0 4.779-2.164 4.779-4.779a4.753 4.753 0 00-4.779-4.779z" fill="#3E0C70"/><path d="M196.211 140.576c-.18 0-.451-.09-.541-.271l-3.066-4.148c-.18-.27-.18-.721.181-.901.27-.181.721-.181.901.18l3.066 4.148c.181.27.18.721-.18.902-.09.09-.271.09-.361.09zm-63.84-14.878c-.181 0-.361-.09-.541-.18-.271-.271-.271-.722.09-.992l7.033-6.312c.27-.271.721-.271.992.09.27.271.27.721-.09.992l-7.034 6.312c-.18.09-.27.09-.45.09zm27.051-12.985c-.181 0-.361-.09-.541-.27l-2.525-3.066c-.271-.271-.18-.721.09-.992.271-.27.721-.18.992.09l2.525 3.066c.27.27.18.721-.09.992-.181.18-.271.18-.451.18z" fill="#260C70"/><path d="M193.145 53.561c-.18 0-.27-.09-.451-.18-.27-.27-.36-.631-.09-.992l3.066-3.697c.271-.27.631-.36.992-.09.27.27.361.631.09.992l-3.066 3.697c-.18.18-.36.27-.541.27zm28.494 33.634c-.18 0-.36-.09-.541-.27l-6.312-7.575c-.27-.27-.18-.721.09-.992.271-.27.722-.18.992.09l6.312 7.575c.271.27.181.721-.09.992-.18.18-.27.18-.451.18z" fill="#3E0C70"/><path d="M145.175 22.453h-.181l-5.77-1.353c-.361-.09-.632-.45-.541-.812.09-.36.45-.63.811-.54l5.771 1.352c.361.09.631.45.541.811-.09.361-.361.542-.631.542z" fill="#260C70"/><path d="M204.507 61.136h-28.224v28.223h28.224V61.136z" fill="#fff"/><path d="M205.138 89.99h-29.576V60.414h29.576V89.99zm-28.223-1.353h26.871v-26.87h-26.871v26.87z" fill="#3E0C70"/><path d="M145.134 170.553v-41.38h41.38v41.38h-41.38z" fill="#fff" stroke="#3E0C70"/><path d="M187.735 171.775h-43.732v-43.733h43.732v43.733zm-42.47-1.353h41.028v-41.027h-41.028v41.027zm50.946-88.637a.69.69 0 01-.451-.18l-11.722-11.723a.708.708 0 010-.992.708.708 0 01.992 0l11.632 11.632c.27.27.27.722 0 .992a.496.496 0 01-.451.27z" fill="#3E0C70"/><path d="M184.489 81.784a.69.69 0 01-.451-.18.709.709 0 010-.992L195.67 68.98a.708.708 0 01.992 0c.27.27.27.722 0 .992L185.03 81.604c-.18.09-.361.18-.541.18z" fill="#3E0C70"/><path d="M175.201 143.191h-18.304a.711.711 0 01-.721-.722c0-.45.27-.721.721-.721h18.304c.361 0 .722.271.722.721a.712.712 0 01-.722.722zm0 5.771h-18.304a.711.711 0 01-.721-.722c0-.45.27-.721.721-.721h18.304c.361 0 .722.271.722.721a.712.712 0 01-.722.722zm.001 5.68h-3.697a.711.711 0 01-.722-.721c0-.451.271-.721.722-.721h3.697c.36 0 .721.27.721.721a.71.71 0 01-.721.721zm-7.124 0h-11.181a.71.71 0 01-.721-.721c0-.451.27-.721.721-.721h11.181a.71.71 0 01.721.721.71.71 0 01-.721.721z" fill="#260C70"/></svg>