<svg width="134" height="324" fill="none" xmlns="http://www.w3.org/2000/svg"><path d="M27 162h100m1-156L25 162m103-75L28 164m-1 0l100 66M24 164l103 154" stroke="#7B2CDF" stroke-width="2"/><circle cx="128" cy="86" r="5" fill="#FAFAFA" stroke="#7B2CDF" stroke-width="2"/><circle cx="128" cy="162" r="5" fill="#FAFAFA" stroke="#7B2CDF" stroke-width="2"/><circle cx="128" cy="230" r="5" fill="#FAFAFA" stroke="#7B2CDF" stroke-width="2"/><circle cx="128" cy="318" r="5" fill="#FAFAFA" stroke="#7B2CDF" stroke-width="2"/><circle cx="128" cy="6" r="5" fill="#FAFAFA" stroke="#7B2CDF" stroke-width="2"/><g filter="url(#filter0_d)"><path d="M34.5 147.866a3 3 0 00-3 0l-9.99 5.768a3 3 0 00-1.5 2.598v11.536a3 3 0 001.5 2.598l9.99 5.768a3 3 0 003 0l9.99-5.768a3 3 0 001.5-2.598v-11.536a3 3 0 00-1.5-2.598l-9.99-5.768z" fill="#FAFAFA"/><path d="M33.75 149.165a1.5 1.5 0 00-1.5 0l-9.99 5.768a1.5 1.5 0 00-.75 1.299v11.536a1.5 1.5 0 00.75 1.299l9.99 5.768a1.5 1.5 0 001.5 0l9.99-5.768a1.5 1.5 0 00.75-1.299v-11.536a1.5 1.5 0 00-.75-1.299l-9.99-5.768z" stroke="#8943F4" stroke-width="3"/></g><defs><filter id="filter0_d" x=".01" y="137.464" width="65.981" height="69.072" filterUnits="userSpaceOnUse" color-interpolation-filters="sRGB"><feFlood flood-opacity="0" result="BackgroundImageFix"/><feColorMatrix in="SourceAlpha" values="0 0 0 0 0 0 0 0 0 0 0 0 0 0 0 0 0 0 127 0"/><feOffset dy="10"/><feGaussianBlur stdDeviation="10"/><feColorMatrix values="0 0 0 0 0.537255 0 0 0 0 0.262745 0 0 0 0 0.972549 0 0 0 0.25 0"/><feBlend in2="BackgroundImageFix" result="effect1_dropShadow"/><feBlend in="SourceGraphic" in2="effect1_dropShadow" result="shape"/></filter></defs></svg>