<svg width="138" height="156" viewBox="0 0 138 156" fill="none" xmlns="http://www.w3.org/2000/svg">
<path d="M80.0188 61.5047L109.728 58.9893L108.029 83.464L82.1943 85.1636L80.0188 61.5047Z" fill="white"/>
<path d="M109.185 59.6011L107.485 82.988L82.6026 84.6197L80.4951 61.9806L109.185 59.6011ZM110.273 58.4453L79.4753 61.0968L81.7188 85.7074L108.437 83.9398L110.273 58.4453Z" fill="#030047"/>
<path d="M91.3724 79.7928C91.1004 79.7928 90.8965 79.5888 90.8965 79.3169L90.0127 72.3823L86.8853 71.3626C86.6134 71.2946 86.4774 70.9547 86.5454 70.7507C86.6134 70.5468 86.9533 70.3428 87.1573 70.4108L90.8285 71.6345L91.7803 79.1809C91.9162 79.5208 91.7123 79.7928 91.3724 79.7928C91.4404 79.7928 91.4404 79.7928 91.3724 79.7928Z" fill="#030047"/>
<path d="M41.6753 50.9668L35.0807 78.1609L18.4243 88.4947L26.7865 58.2412L27.5343 57.9013L31.7494 55.7938L32.4972 55.4539L41.6753 50.9668Z" fill="#7B2CDF"/>
<path d="M77.0275 88.0193H26.9903L25.7666 85.9797L38.7518 78.0934L62.2747 63.7485L71.0448 78.0934L77.0275 88.0193Z" fill="white"/>
<path d="M62.0707 64.4282L70.7048 78.6371L76.1436 87.4752H27.3302L26.5143 86.1155L38.2758 78.9091L62.0707 64.4282ZM62.4106 63.0005L37.7319 78.0932L25.0867 85.8436L26.7183 88.563H77.9792L71.6566 78.1612L62.4106 63.0005Z" fill="#030047"/>
<path d="M41.2674 83.1239C41.0634 83.1239 40.9275 83.0559 40.8595 82.852C40.7235 82.58 40.7915 82.3081 41.0634 82.1721L59.4195 70.9545C59.6914 70.8186 59.9634 70.8865 60.0993 71.0905C60.2353 71.3624 60.1673 71.6344 59.8954 71.7704L41.5393 82.9879C41.4034 83.0559 41.3354 83.1239 41.2674 83.1239Z" fill="#030047"/>
<path d="M44.5306 88.5629C44.3266 88.5629 44.1907 88.4949 44.1227 88.2909C43.9867 88.019 44.0547 87.747 44.3266 87.6111L62.6827 76.3935C62.9546 76.2575 63.2265 76.3255 63.3625 76.5295C63.4985 76.7334 63.4305 77.0734 63.1586 77.2093L44.8025 88.4269C44.7345 88.4949 44.6665 88.5629 44.5306 88.5629Z" fill="#030047"/>
<path d="M78.3873 18.606C82.7384 17.2463 95.4516 13.9151 106.261 31.9991C117.139 50.0832 110.272 65.6519 110.272 65.6519L77.7074 64.0202C77.7074 64.0202 76.6877 45.6642 73.7643 33.9027C73.1524 31.3193 71.4528 20.7816 78.3873 18.606Z" fill="#A62CDF"/>
<path d="M28.0108 57.0859C27.7389 52.7348 29.3705 45.5964 35.0813 38.5259C38.8205 40.4975 42.4237 42.741 45.483 44.7126C43.2395 47.0241 41.8798 49.2676 41.2679 50.6273L28.0108 57.0859Z" fill="white"/>
<path d="M35.2171 39.1374C38.6164 40.973 41.8797 42.9446 44.7351 44.7802C42.7635 46.8878 41.5398 48.9273 40.9279 50.219L28.4866 56.3377C28.4186 52.1226 30.1182 45.664 35.2171 39.1374ZM34.9452 37.8457C28.8266 45.3241 26.991 53.0744 27.6028 57.9014L41.7438 50.9669C42.3556 49.6072 43.7833 47.0917 46.3668 44.6442C42.5596 42.1968 38.8204 39.8853 34.9452 37.8457Z" fill="#3E0C70"/>
<path d="M38.4807 31.7271C35.7613 34.3785 31.7502 39.0015 30.0505 42.8767C34.0617 44.5083 41.948 47.6356 45.8911 49.4032C47.3188 47.4317 53.5055 41.9248 56.6328 40.0892C66.6946 34.1745 79.1359 31.1832 79.1359 31.1832L80.6996 17.3822C66.8306 16.1584 50.2422 20.3055 38.4807 31.7271Z" fill="#A62CDF"/>
<path d="M73.6291 31.8628C73.3572 31.8628 73.1532 31.6589 73.1532 31.3869L72.6773 27.4438C72.6093 27.1718 72.8133 26.8999 73.1532 26.8999C73.4252 26.8999 73.6971 27.0359 73.6971 27.3758L74.173 31.3189C74.173 31.5909 73.969 31.7948 73.6291 31.8628Z" fill="#3E0C70"/>
<path d="M33.6526 51.8505C38.0036 49.335 37.7317 55.7936 37.7317 55.7936C37.7317 55.7936 35.8281 60.0087 38.5475 60.6206C40.2472 61.0285 44.2583 52.4624 41.199 47.8394" fill="white"/>
<path d="M38.752 61.1645C38.684 61.1645 38.6161 61.1645 38.4801 61.1645C37.7323 60.9605 37.1884 60.5526 36.9164 59.9408C36.1686 58.4451 37.0524 56.2016 37.2563 55.7257C37.2563 54.8418 37.1204 52.5983 36.1006 51.9865C35.6247 51.7145 34.8769 51.7825 33.9251 52.3264C33.6531 52.4624 33.3812 52.3944 33.2452 52.1224C33.1093 51.8505 33.1772 51.5786 33.4492 51.4426C34.7409 50.6948 35.7607 50.6268 36.6445 51.1027C38.4121 52.1904 38.3441 55.4537 38.3441 55.8616V55.9296L38.2761 55.9976C38.0042 56.6095 37.3923 58.4451 37.8682 59.4648C38.0042 59.8048 38.3441 60.0087 38.752 60.1447C38.82 60.1447 39.3639 59.9408 40.0438 58.717C41.6074 56.1336 42.8312 51.1707 40.8596 48.1793C40.7236 47.9753 40.7916 47.6354 40.9955 47.4994C41.1995 47.3635 41.5394 47.4315 41.6754 47.6354C44.2588 51.4426 42.2193 57.4253 40.5876 59.8048C39.9078 60.7566 39.2959 61.1645 38.752 61.1645Z" fill="#030047"/>
<path d="M117.683 78.0933L108.505 83.94L101.298 88.495H18.4241L34.8085 78.0933H38.7517L25.7665 85.9795L26.9902 88.0191H77.0274L71.0447 78.0933H117.683Z" fill="#030047"/>
<path d="M101.23 88.4951H18.4243V155.733H101.23V88.4951Z" fill="#7B2CDF"/>
<path d="M117.683 145.331L101.23 155.733V88.495L117.683 78.0933V145.331Z" fill="#7B2CDF"/>
<path d="M101.23 152.537C100.958 152.537 100.687 152.333 100.687 151.993V93.186C100.687 92.914 100.89 92.6421 101.23 92.6421C101.57 92.6421 101.774 92.846 101.774 93.186V151.993C101.774 152.265 101.57 152.537 101.23 152.537Z" fill="white"/>
<path d="M43.7148 88.4951V88.6311C43.7148 106.239 32.4973 114.669 18.4243 115.145V88.5631H43.7148V88.4951Z" fill="#030047"/>
<path d="M36.7802 111.61L31.0015 116.233L38.1399 119.429L36.7802 111.61Z" fill="#030047"/>
<path d="M91.4405 103.316H50.8533V107.395H91.4405V103.316Z" fill="white"/>
<path d="M75.1923 115.078H68.1218C67.3059 115.078 66.6941 114.398 66.6941 113.65C66.6941 112.834 67.3739 112.222 68.1218 112.222H75.1923C76.0081 112.222 76.6199 112.902 76.6199 113.65C76.6879 114.466 76.0081 115.078 75.1923 115.078Z" fill="#030047"/>
<path d="M82.9419 115.078H80.5624C79.7466 115.078 79.1348 114.398 79.1348 113.65C79.1348 112.834 79.8146 112.222 80.5624 112.222H82.9419C83.7578 112.222 84.3696 112.902 84.3696 113.65C84.4376 114.466 83.7578 115.078 82.9419 115.078Z" fill="#030047"/>
<path d="M89.945 115.078H87.4975C86.6817 115.078 86.0698 114.398 86.0698 113.65C86.0698 112.834 86.7497 112.222 87.4975 112.222H89.877C90.6928 112.222 91.3047 112.902 91.3047 113.65C91.3726 114.466 90.7608 115.078 89.945 115.078Z" fill="#030047"/>
<path d="M66.2183 130.374H18.9685V155.189H66.2183V130.374Z" fill="white"/>
<path d="M65.6741 130.918V154.713H19.4441V130.918H65.6741ZM66.6939 129.898H18.4243V155.733H66.6939V129.898Z" fill="#030047"/>
<path d="M51.7373 155.121C51.6013 155.121 51.5333 155.121 51.4653 155.053L19.1723 131.462C18.9683 131.326 18.9003 130.986 19.0363 130.782C19.1723 130.578 19.5122 130.51 19.7162 130.646L52.0092 154.237C52.2131 154.373 52.2811 154.713 52.1452 154.917C52.0772 155.053 51.8732 155.121 51.7373 155.121Z" fill="#030047"/>
<path d="M33.3131 155.121C33.1772 155.121 32.9732 155.053 32.9052 154.917C32.7693 154.713 32.7693 154.373 33.0412 154.237L65.0623 130.646C65.2662 130.51 65.6062 130.51 65.7421 130.782C65.8781 130.986 65.8781 131.326 65.6062 131.462L33.5851 155.053C33.5171 155.121 33.4491 155.121 33.3131 155.121Z" fill="#030047"/>
<path d="M123.937 98.353H121.286V127.247H123.937V98.353Z" fill="#030047"/>
<path d="M61.866 59.7375C61.798 59.7375 61.798 59.7375 61.7301 59.7375C61.4581 59.6696 61.3221 59.3976 61.3901 59.1257L62.274 55.7264C62.342 55.4545 62.6139 55.3185 62.8858 55.3865C63.1578 55.4545 63.2937 55.7264 63.2257 55.9984L62.3419 59.3976C62.3419 59.6016 62.138 59.7375 61.866 59.7375Z" fill="#A62CDF"/>
<path d="M13.1889 71.771L7.13818 75.6462L13.5968 78.5015L13.1889 71.771Z" fill="#030047"/>
<path d="M53.3211 63.5066L49.3311 59.5166L45.341 63.5066L49.3311 67.4966L53.3211 63.5066Z" fill="#3E0C70"/>
<path d="M65.3336 84.9599C65.1976 84.9599 65.1296 84.892 64.9936 84.824L62.8181 82.9204C62.6141 82.7164 62.5461 82.4445 62.7501 82.1726C62.954 81.9686 63.226 81.9006 63.498 82.1046L65.6735 84.0082C65.8774 84.2121 65.9454 84.4841 65.7415 84.756C65.6055 84.892 65.4695 84.9599 65.3336 84.9599Z" fill="#A62CDF"/>
<path d="M57.3111 60.2133C57.1751 60.2133 56.9712 60.1453 56.9032 59.9413L53.3 54.2306C53.164 53.9586 53.232 53.6867 53.436 53.5507C53.7079 53.4148 53.9798 53.4827 54.1158 53.6867L57.719 59.3975C57.855 59.6694 57.787 59.9413 57.5831 60.0773C57.5151 60.2133 57.4471 60.2133 57.3111 60.2133Z" fill="#A62CDF"/>
<path d="M81.7861 55.7266C81.6501 55.7266 81.5142 55.6586 81.4462 55.5906C81.2422 55.3867 81.2422 55.0467 81.4462 54.8428L85.7293 50.5597C85.9332 50.3557 86.2732 50.3557 86.4771 50.5597C86.6811 50.7637 86.6811 51.1036 86.4771 51.3075L82.194 55.5906C81.9901 55.7266 81.8541 55.7266 81.7861 55.7266Z" fill="#E4E4EF"/>
<path d="M73.6279 67.8957C73.356 67.8957 73.1521 67.6917 73.1521 67.4198L72.8801 64.8364C72.8801 64.5644 73.0841 64.2925 73.356 64.2925C73.628 64.2925 73.8999 64.4964 73.8999 64.7684L74.1719 67.3518C74.1719 67.6238 73.9679 67.8277 73.6279 67.8957Z" fill="#A62CDF"/>
<path d="M88.7205 61.0972L92.1197 58.4458L92.7996 63.0008L88.7205 61.0972Z" fill="#F2F2F9"/>
<path d="M62.9541 45.2566L66.6933 43.0811L66.8292 47.976L62.9541 45.2566Z" fill="#A62CDF"/>
<path d="M41.6747 72.2469C41.6067 72.2469 41.6068 72.2469 41.5388 72.2469C41.2668 72.1789 41.0629 71.907 41.1309 71.635L42.0147 67.8279C42.0826 67.5559 42.3546 67.3519 42.6265 67.4199C42.8985 67.4879 43.1024 67.7599 43.0344 68.0318L42.1506 71.839C42.0826 72.1109 41.8787 72.2469 41.6747 72.2469Z" fill="#A62CDF"/>
<path d="M77.3669 88.0195C82.3299 84.9601 89.0604 83.3965 97.3546 83.3965C99.8021 83.3965 102.386 83.5325 105.105 83.8044C105.921 83.8724 106.601 84.0084 107.213 84.1443L101.094 88.0195H77.3669Z" fill="white"/>
<path d="M97.3548 82.8525V83.8723C99.8023 83.8723 102.386 84.0083 105.037 84.2802C105.309 84.2802 105.581 84.3482 105.853 84.3482L101.026 87.4076H79.3387C84.0297 85.0281 90.0804 83.8044 97.3548 83.8044V82.8525ZM97.3548 82.8525C89.0606 82.8525 81.3782 84.3482 75.6675 88.4953H101.298L108.504 83.9403C107.689 83.6683 106.601 83.4644 105.173 83.2604C102.522 83.0565 99.9383 82.8525 97.3548 82.8525Z" fill="#030047"/>
<path d="M22.5712 66.0599H22.5033L14.277 64.5642C14.0051 64.4962 13.8011 64.2243 13.8691 63.9524C13.9371 63.6804 14.209 63.4764 14.481 63.5444L22.7072 65.0401C22.9792 65.1081 23.1831 65.3801 23.1151 65.652C22.9791 65.856 22.7752 66.0599 22.5712 66.0599Z" fill="#030047"/>
<path d="M17.6766 69.3915H17.6086C17.3367 69.3235 17.1327 69.0516 17.2007 68.7796L18.6964 60.5534C18.7643 60.2815 19.0363 60.0775 19.3082 60.1455C19.5802 60.2135 19.7841 60.4854 19.7161 60.7574L18.2205 68.9836C18.1525 69.1875 17.9485 69.3915 17.6766 69.3915Z" fill="#030047"/>
<path d="M73.6276 82.8524C76.8191 82.8524 79.4064 80.2652 79.4064 77.0737C79.4064 73.8822 76.8191 71.2949 73.6276 71.2949C70.4361 71.2949 67.8489 73.8822 67.8489 77.0737C67.8489 80.2652 70.4361 82.8524 73.6276 82.8524Z" fill="#E4E4EF"/>
<path d="M28.3496 66.7402L36.1 73.3348L27.4658 77.278L28.3496 66.7402Z" fill="white"/>
<path d="M28.7578 67.7598L35.1485 73.1986L28.01 76.4619L28.7578 67.7598ZM27.942 65.7202L26.8542 78.0936L37.052 73.4706L27.942 65.7202Z" fill="#030047"/>
<path d="M123.937 51.7832L107.553 62.253L101.23 88.6313L117.682 78.1615L123.937 51.7832Z" fill="#7B2CDF"/>
<path d="M103.134 87.8152C102.998 87.8152 102.794 87.7472 102.726 87.6112C102.59 87.4073 102.658 87.0673 102.862 86.9314L115.507 78.9091C115.711 78.7731 116.051 78.8411 116.187 79.0451C116.323 79.2491 116.255 79.589 116.051 79.7249L103.406 87.7472C103.27 87.8152 103.202 87.8152 103.134 87.8152Z" fill="white"/>
<path d="M87.0212 17.0426C106.601 16.2268 124.821 21.8015 131.144 29.6878C138.078 38.322 134.543 55.3183 126.045 59.7374C123.937 60.8251 121.558 61.0971 120.266 61.7089C116.323 63.5445 115.439 63.3406 114.147 62.3208C114.147 62.3208 110.884 64.3603 109.932 61.8449C109.932 61.8449 108.709 65.0402 106.397 64.2244C104.086 63.4085 106.873 57.0859 113.06 53.8226C119.314 50.5593 122.442 42.4011 118.974 37.5061C115.507 32.6112 94.0237 26.6285 94.0237 26.6285L87.0212 17.0426Z" fill="white"/>
<path d="M107.213 64.9043C106.941 64.9043 106.669 64.8363 106.329 64.7683C105.649 64.5644 105.241 63.9525 105.173 63.1367C104.969 60.5532 108.097 55.9302 112.924 53.4148C116.255 51.6472 118.839 48.3159 119.722 44.7127C120.334 42.1292 119.926 39.6817 118.635 37.8461C115.235 33.1551 94.2278 27.2404 93.9559 27.1724L93.8199 27.1045L86.0696 16.5667L87.0213 16.4988C106.261 15.6829 124.957 21.1217 131.62 29.348C135.019 33.631 136.243 40.2256 134.815 47.0241C133.523 53.1428 130.396 58.0378 126.385 60.1453C125.093 60.8252 123.733 61.1651 122.578 61.505C121.762 61.709 121.082 61.9129 120.606 62.1169C116.867 63.8845 115.643 63.8845 114.215 62.8647C113.604 63.2046 112.176 63.8165 111.02 63.4086C110.68 63.2727 110.34 63.0687 110.136 62.7967C109.457 63.8845 108.505 64.9043 107.213 64.9043ZM94.4318 26.2207C96.6073 26.8325 116.051 32.4753 119.45 37.2343C120.946 39.2738 121.354 41.9933 120.674 44.9166C119.79 48.7918 116.935 52.395 113.332 54.2986C108.641 56.7461 105.989 61.0291 106.125 63.0687C106.193 63.6806 106.465 63.7485 106.601 63.8165C108.369 64.4284 109.457 61.777 109.457 61.709L109.932 60.4852L110.408 61.709C110.544 62.1849 110.816 62.4568 111.224 62.5248C112.108 62.7967 113.468 62.1849 113.876 61.9129L114.215 61.709L114.487 61.9129C115.507 62.7288 116.187 63.0687 120.062 61.2331C120.674 60.9612 121.354 60.7572 122.17 60.5532C123.326 60.2133 124.617 59.8734 125.773 59.2615C129.512 57.2899 132.504 52.6669 133.727 46.8882C135.087 40.3616 133.999 34.1069 130.736 30.0278C124.413 22.1415 106.533 16.9747 87.9732 17.5185L94.4318 26.2207Z" fill="#3E0C70"/>
<path d="M119.111 37.5742C121.014 40.1576 120.946 43.7609 119.586 46.9562C124.006 48.5878 130.668 50.1515 134.951 52.123C138.282 45.1206 138.35 34.8548 133.116 29.348C122.918 18.8102 106.737 16.2268 87.1575 17.0426L96.4035 33.0192C96.3355 33.0192 115.575 32.6793 119.111 37.5742Z" fill="#A62CDF"/>
<path d="M114.012 56.2024C112.244 57.4261 110.816 58.9898 109.865 60.8934C109.661 61.3013 110.272 61.6412 110.476 61.2333C111.428 59.3977 112.72 57.9021 114.42 56.8143C114.691 56.5423 114.352 55.9305 114.012 56.2024Z" fill="#030047"/>
<path d="M117.819 57.3577C116.391 58.3775 115.303 59.6692 114.488 61.2328C114.284 61.6408 114.895 61.9807 115.099 61.5728C115.847 60.1451 116.867 58.9214 118.159 57.9696C118.499 57.6976 118.159 57.0857 117.819 57.3577Z" fill="#030047"/>
<path d="M105.853 34.039C105.785 34.039 105.785 34.039 105.717 34.039L102.93 33.1552C102.658 33.0872 102.522 32.8152 102.59 32.5433C102.658 32.2713 102.93 32.1354 103.202 32.2034L105.989 33.0872C106.261 33.1551 106.397 33.4271 106.329 33.699C106.261 33.903 106.057 34.039 105.853 34.039Z" fill="#030047"/>
<path d="M11.3551 119.905C11.2191 119.905 11.0831 119.837 11.0151 119.769L0.205457 108.959C0.00150124 108.755 0.00150124 108.415 0.205457 108.211C0.409413 108.007 0.749365 108.007 0.953321 108.211L11.763 119.021C11.9669 119.225 11.9669 119.565 11.763 119.769C11.627 119.837 11.491 119.905 11.3551 119.905Z" fill="#030047"/>
<path d="M0.545384 119.905C0.409413 119.905 0.273443 119.837 0.205457 119.769C0.00150124 119.565 0.00150124 119.225 0.205457 119.021L11.0151 108.211C11.2191 108.007 11.559 108.007 11.763 108.211C11.9669 108.415 11.9669 108.755 11.763 108.959L0.953321 119.769C0.81735 119.837 0.681354 119.905 0.545384 119.905Z" fill="#030047"/>
<path d="M11.3536 129.151H0.543874C0.271933 129.151 0 128.947 0 128.607C0 128.267 0.203948 128.063 0.543874 128.063H11.3536C11.6255 128.063 11.8974 128.267 11.8974 128.607C11.8974 128.947 11.6255 129.151 11.3536 129.151Z" fill="#030047"/>
<path d="M89.6045 8.0005C89.4005 7.5246 89.1286 7.04868 88.7887 6.57278C88.7887 6.57278 88.7887 6.5728 88.7887 6.50481C85.6613 2.01778 79.9506 0.658073 75.9394 3.44547C74.0358 4.80518 72.9481 6.91272 72.6761 9.22422C72.3362 11.7397 73.288 14.3231 74.3078 16.5666C76.6193 21.7335 81.8541 24.045 87.157 19.626C88.3127 18.6742 89.1966 17.4504 89.8084 16.0228C91.848 15.6148 93.0717 14.1192 93.2757 12.2836C93.4796 10.176 91.916 7.79654 89.6045 8.0005Z" fill="white"/>
<path d="M81.4463 22.4815C80.9024 22.4815 80.3585 22.4136 79.8146 22.2776C77.2992 21.6657 75.0557 19.6941 73.7639 16.7708C72.8121 14.6632 71.7244 11.8758 72.1323 9.15639C72.4722 6.50496 73.696 4.32943 75.5995 3.03771C77.5031 1.74599 79.8826 1.20211 82.2621 1.678C84.9815 2.1539 87.497 3.85354 89.1966 6.23303C89.4685 6.64094 89.7405 7.04887 89.9444 7.52477C90.8962 7.52477 91.7801 7.93269 92.5279 8.68052C93.4797 9.63232 93.9556 11.06 93.7516 12.4197C93.4797 14.5273 92.12 16.0909 90.1484 16.5668C89.5366 17.9265 88.5848 19.1503 87.429 20.102C85.4574 21.6657 83.4178 22.4815 81.4463 22.4815ZM80.5625 2.49384C78.9988 2.49384 77.4351 2.96973 76.1434 3.85354C74.4438 5.00929 73.424 6.91288 73.0841 9.29237C72.7442 11.7398 73.6959 14.2553 74.6477 16.3629C75.8035 18.9463 77.7751 20.7819 80.0186 21.3258C82.1941 21.8017 84.5056 21.1218 86.7492 19.2862C87.8369 18.4024 88.7207 17.2467 89.2646 15.887L89.4006 15.615L89.6725 15.547C91.3721 15.2071 92.5279 13.9833 92.7319 12.2157C92.8678 11.1959 92.4599 10.0402 91.78 9.29237C91.3721 8.88446 90.6923 8.40855 89.6725 8.47654H89.3326L89.1966 8.13661C88.9247 7.59273 88.7207 7.18481 88.4488 6.7769C86.8851 4.53339 84.6416 3.03774 82.1261 2.56185C81.5822 2.56185 81.0384 2.49384 80.5625 2.49384Z" fill="#3E0C70"/>
<path d="M80.5762 12.9787C80.7784 12.6623 80.6859 12.2419 80.3695 12.0397C80.0531 11.8376 79.6327 11.9301 79.4306 12.2465C79.2284 12.5629 79.3209 12.9832 79.6373 13.1854C79.9537 13.3876 80.3741 13.2951 80.5762 12.9787Z" fill="#3E0C70"/>
<path d="M77.5708 17.7903C76.8909 16.4306 76.415 15.0029 76.0751 13.5073C76.0071 13.0994 76.687 12.9634 76.7549 13.3713C77.0269 14.799 77.5028 16.1587 78.1826 17.5184C78.3866 17.8583 77.7747 18.1982 77.5708 17.7903Z" fill="#3E0C70"/>
<path d="M87.5648 12.8953C87.7008 11.3316 88.9246 9.97191 90.5562 9.76796C90.9641 9.69997 91.1681 10.3798 90.6922 10.4478C89.4005 10.5838 88.3807 11.6035 88.2447 12.8953C88.1767 13.3712 87.4968 13.3712 87.5648 12.8953Z" fill="#3E0C70"/>
<path d="M86.8849 9.83608C86.409 11.5357 84.2335 9.22423 80.0864 8.40841C78.2508 8.06848 70.4324 10.7879 69.2087 8.13645C67.3731 4.26129 72.54 2.01779 75.8713 3.44549C75.5314 2.01779 77.163 -0.0897755 79.3385 0.99799C85.1853 -1.92538 90.4881 1.88182 89.8083 8.40841C89.8083 8.40841 87.4288 9.2922 86.8849 9.83608Z" fill="#3E0C70"/>
</svg>
